<svg xmlns="http://www.w3.org/2000/svg" role="img" viewBox="176.31 -11.19 346.88 581.88"><defs><symbol overflow="visible"><path d="M29.312-1.75c-1.5117.78125-3.0898 1.3711-4.7344 1.7656-1.6367.40625-3.3398.60938-5.1094.60938-5.3125 0-9.5273-1.4844-12.641-4.4531-3.1055-2.9688-4.6562-7-4.6562-12.094s1.5508-9.125 4.6562-12.094c3.1133-2.9688 7.3281-4.4531 12.641-4.4531 1.7695 0 3.4727.19922 5.1094.59375 1.6445.39844 3.2227.99219 4.7344 1.7812v6.5938c-1.5312-1.0391-3.0391-1.8008-4.5156-2.2812-1.4805-.48828-3.0391-.73438-4.6719-.73438-2.9375 0-5.2461.94531-6.9219 2.8281-1.6797 1.875-2.5156 4.4648-2.5156 7.7656 0 3.293.83594 5.8828 2.5156 7.7656 1.6758 1.875 3.9844 2.8125 6.9219 2.8125 1.6328 0 3.1914-.23828 4.6719-.71875 1.4766-.48828 2.9844-1.2539 4.5156-2.2969z"/></symbol><symbol overflow="visible"><path d="M21.453-17.406c-.67969-.3125-1.3516-.53906-2.0156-.6875-.65625-.15625-1.3203-.23438-1.9844-.23438-1.9688 0-3.4844.63281-4.5469 1.8906-1.0547 1.2617-1.5781 3.0703-1.5781 5.4219v11.016H3.6718v-23.922h7.6562v3.9219c.97656-1.5625 2.1016-2.7031 3.375-3.4219 1.2812-.71875 2.8125-1.0781 4.5938-1.0781.25 0 .52344.01172.82812.03125.30078.02344.73438.07031 1.2969.14062z"/></symbol><symbol overflow="visible"><path d="M27.562-12.031v2.1875H9.671c.1875 1.793.83203 3.1367 1.9375 4.0312 1.1133.89844 2.6719 1.3438 4.6719 1.3438 1.6016 0 3.25-.23438 4.9375-.70312 1.6875-.47656 3.4219-1.2031 5.2031-2.1719v5.8906c-1.8047.6875-3.6094 1.2031-5.4219 1.5469-1.8125.35156-3.6211.53125-5.4219.53125-4.3359 0-7.7031-1.0977-10.109-3.2969-2.3984-2.207-3.5938-5.2969-3.5938-9.2656 0-3.9062 1.1758-6.9727 3.5312-9.2031 2.3633-2.2383 5.6094-3.3594 9.7344-3.3594 3.7578 0 6.7695 1.1367 9.0312 3.4062 2.2578 2.2617 3.3906 5.2812 3.3906 9.0625zm-7.8594-2.5312c0-1.457-.42969-2.6289-1.2812-3.5156-.84375-.89453-1.9492-1.3438-3.3125-1.3438-1.4922 0-2.6992.41797-3.625 1.25-.91797.83594-1.4922 2.0391-1.7188 3.6094z"/></symbol><symbol overflow="visible"><path d="M14.391-10.766c-1.5938 0-2.793.27344-3.5938.8125-.80469.54297-1.2031 1.3398-1.2031 2.3906 0 .96875.32031 1.7305.96875 2.2812.64453.54297 1.5469.8125 2.7031.8125 1.4375 0 2.6445-.51562 3.625-1.5469.98828-1.0312 1.4844-2.3203 1.4844-3.875v-.875zm11.688-2.8906v13.656h-7.7031v-3.5469c-1.0312 1.4492-2.1875 2.5078-3.4688 3.1719s-2.8398 1-4.6719 1c-2.4805 0-4.4961-.72266-6.0469-2.1719-1.543-1.4453-2.3125-3.3203-2.3125-5.625 0-2.8125.96094-4.8672 2.8906-6.1719 1.9375-1.3125 4.9688-1.9688 9.0938-1.9688h4.5156v-.60938c0-1.207-.48047-2.0938-1.4375-2.6562-.94922-.5625-2.4375-.84375-4.4688-.84375-1.6367 0-3.1562.16797-4.5625.5-1.4062.32422-2.7188.8125-3.9375 1.4688v-5.8281c1.6445-.40625 3.2891-.70703 4.9375-.90625 1.6562-.20703 3.3047-.3125 4.9531-.3125 4.3203 0 7.4375.85547 9.3438 2.5625 1.9141 1.6992 2.875 4.4609 2.875 8.2812z"/></symbol><symbol overflow="visible"><path d="M12.031-30.719v6.7969h7.875v5.4688h-7.875v10.141c0 1.1172.21875 1.8711.65625 2.2656.4375.38672 1.3125.57812 2.625.57812h3.9375v5.4688h-6.5625c-3.0234 0-5.1641-.62891-6.4219-1.8906-1.2617-1.2578-1.8906-3.3984-1.8906-6.4219v-10.141H.57785v-5.4688h3.7969v-6.7969z"/></symbol><symbol overflow="visible"><path d="M19.953-20.422v-12.812h7.6875V0H19.953v-3.4531c-1.0547 1.4062-2.2148 2.4375-3.4844 3.0938-1.2734.65625-2.7422.98438-4.4062.98438-2.9492 0-5.3711-1.1719-7.2656-3.5156-1.8867-2.3438-2.8281-5.3594-2.8281-9.0469s.94141-6.7031 2.8281-9.0469c1.8945-2.3438 4.3164-3.5156 7.2656-3.5156 1.6562 0 3.1172.33594 4.3906 1 1.2812.65625 2.4453 1.6836 3.5 3.0781zM14.9061-4.938c1.6445 0 2.8945-.59766 3.75-1.7969.86328-1.1953 1.2969-2.9297 1.2969-5.2031 0-2.2812-.43359-4.0195-1.2969-5.2188-.85547-1.1953-2.1055-1.7969-3.75-1.7969-1.625 0-2.8711.60156-3.7344 1.7969-.85547 1.1992-1.2812 2.9375-1.2812 5.2188 0 2.2734.42578 4.0078 1.2812 5.2031.86328 1.1992 2.1094 1.7969 3.7344 1.7969z"/></symbol><symbol overflow="visible"><path d="M16.406-4.9375c1.6328 0 2.8828-.59766 3.75-1.7969.86328-1.1953 1.2969-2.9297 1.2969-5.2031 0-2.2812-.43359-4.0195-1.2969-5.2188-.86719-1.1953-2.1172-1.7969-3.75-1.7969-1.6367 0-2.8906.60547-3.7656 1.8125-.875 1.1992-1.3125 2.9336-1.3125 5.2031 0 2.2617.4375 3.9961 1.3125 5.2031.875 1.1992 2.1289 1.7969 3.7656 1.7969zm-5.0781-15.484c1.0508-1.3945 2.2188-2.4219 3.5-3.0781 1.2812-.66406 2.7539-1 4.4219-1 2.9453 0 5.3672 1.1719 7.2656 3.5156 1.8945 2.3438 2.8438 5.3594 2.8438 9.0469s-.94922 6.7031-2.8438 9.0469C24.617-.5464 22.1951.6254 19.2498.6254c-1.668 0-3.1406-.33594-4.4219-1s-2.4492-1.6914-3.5-3.0781V.0004H3.6717v-33.234h7.6562z"/></symbol><symbol overflow="visible"><path d="M.53125-23.922h7.6562l6.4219 16.234 5.4688-16.234h7.6562l-10.062 26.188c-1.0117 2.6641-2.1953 4.5234-3.5469 5.5781-1.3438 1.0625-3.1211 1.5938-5.3281 1.5938h-4.4219V4.4223h2.3906c1.3008 0 2.2422-.21094 2.8281-.625.59375-.40625 1.0547-1.1484 1.3906-2.2188l.20312-.65625z"/></symbol><symbol overflow="visible"><path d="M.21875-31.891h8.2656l8.4531 23.531 8.4375-23.531h8.2656L21.82855 0h-9.7969z"/></symbol><symbol overflow="visible"><path d="M23-23.172v6.2344c-1.0312-.71875-2.0742-1.2422-3.125-1.5781-1.043-.34375-2.125-.51562-3.25-.51562-2.1367 0-3.8047.625-5 1.875-1.1875 1.2422-1.7812 2.9805-1.7812 5.2188 0 2.2305.59375 3.9688 1.7812 5.2188 1.1953 1.25 2.8633 1.875 5 1.875 1.1953 0 2.332-.17578 3.4062-.53125 1.0703-.36328 2.0625-.89453 2.9688-1.5938v6.2656c-1.1875.4375-2.4023.76562-3.6406.98438-1.2305.22656-2.4648.34375-3.7031.34375-4.3125 0-7.6875-1.1094-10.125-3.3281s-3.6562-5.2969-3.6562-9.2344c0-3.9453 1.2188-7.0234 3.6562-9.2344 2.4375-2.2188 5.8125-3.3281 10.125-3.3281 1.25 0 2.4844.10938 3.7031.32812s2.4297.55469 3.6406 1z"/></symbol><symbol overflow="visible"><path d="M15.062-19.031c-1.6992 0-2.9961.60938-3.8906 1.8281-.88672 1.2188-1.3281 2.9766-1.3281 5.2656 0 2.293.44141 4.0469 1.3281 5.2656.89453 1.2188 2.1914 1.8281 3.8906 1.8281 1.6641 0 2.9375-.60938 3.8125-1.8281.88281-1.2188 1.3281-2.9727 1.3281-5.2656 0-2.2891-.44531-4.0469-1.3281-5.2656-.875-1.2188-2.1484-1.8281-3.8125-1.8281zm0-5.4688c4.1133 0 7.3281 1.1094 9.6406 3.3281s3.4688 5.2969 3.4688 9.2344c0 3.9297-1.1562 7.0078-3.4688 9.2344C22.3901-.4841 19.1753.6252 15.062.6252c-4.1367 0-7.3711-1.1094-9.7031-3.3281-2.3242-2.2266-3.4844-5.3047-3.4844-9.2344 0-3.9375 1.1602-7.0156 3.4844-9.2344 2.332-2.2188 5.5664-3.3281 9.7031-3.3281z"/></symbol><symbol overflow="visible"><path d="M4.0156-31.891h13.656c4.0508 0 7.1602.90234 9.3281 2.7031 2.1758 1.8047 3.2656 4.3711 3.2656 7.7031 0 3.3438-1.0898 5.918-3.2656 7.7188-2.168 1.8047-5.2773 2.7031-9.3281 2.7031h-5.4375v11.062H4.0153zm8.2188 5.9531v8.9062h4.5625c1.5938 0 2.8203-.38281 3.6875-1.1562.875-.78125 1.3125-1.8789 1.3125-3.2969 0-1.4258-.4375-2.5234-1.3125-3.2969-.86719-.76953-2.0938-1.1562-3.6875-1.1562z"/></symbol><symbol overflow="visible"><path d="M3.6719-33.234h7.6562V0H3.6719z"/></symbol></defs><path d="M470.49 0H229.51c-11.086.02344-21.711 4.4375-29.547 12.277-7.8398 7.8359-12.254 18.461-12.277 29.547v476.35c.02344 11.086 4.4375 21.711 12.277 29.547 7.8359 7.8398 18.461 12.254 29.547 12.277h240.98c11.086-.02344 21.711-4.4375 29.547-12.277 7.8398-7.8359 12.254-18.461 12.277-29.547V41.824c-.02344-11.086-4.4375-21.711-12.277-29.547C492.2011 4.4372 481.576.023 470.49 0zm33.25 518.18c-.02344 8.8125-3.5352 17.254-9.7656 23.484-6.2305 6.2305-14.672 9.7422-23.484 9.7656h-240.98c-8.8125-.02344-17.254-3.5352-23.484-9.7656-6.2305-6.2305-9.7422-14.672-9.7656-23.484V41.83c.07031-8.7812 3.6016-17.18 9.8281-23.371 6.2227-6.1953 14.641-9.6797 23.422-9.7031h240.98c8.8125.02344 17.254 3.5352 23.484 9.7656 6.2305 6.2305 9.7422 14.672 9.7656 23.484z"/><path d="M317.62 46.812h64.75c2.418 0 4.375-1.957 4.375-4.375s-1.957-4.375-4.375-4.375h-64.75c-2.418 0-4.375 1.957-4.375 4.375s1.957 4.375 4.375 4.375zM364.7 192.5c-1.4414-2.6406-3.5664-4.8477-6.1523-6.3867-2.5859-1.5391-5.5391-2.3555-8.5469-2.3633-3.0078.00781-5.9609.82422-8.5469 2.3633-2.5859 1.5391-4.7109 3.7461-6.1523 6.3867l-91 157.5c-1.543 2.5625-2.3594 5.4961-2.3594 8.4883 0 2.9883.81641 5.9258 2.3594 8.4883 1.418 2.6406 3.5273 4.8477 6.1016 6.3867 2.5703 1.5391 5.5117 2.3555 8.5117 2.3633h182.09c3.0117.00781 5.9727-.80078 8.5625-2.3398 2.5898-1.543 4.7109-3.7578 6.1367-6.4102 1.5078-2.5781 2.3008-5.5039 2.3008-8.4883s-.79297-5.9141-2.3008-8.4883zm83.562 170.36c-1.4688 2.6211-4.2539 4.2305-7.2617 4.1992h-182.09c-2.9766 0-5.7188-1.6055-7.1758-4.1992-1.5625-2.707-1.5625-6.043 0-8.75l91-157.5c1.5664-2.5117 4.3008-4.0586 7.2617-4.1133 2.9766.07422 5.7148 1.6562 7.2617 4.1992l91 157.5c1.5977 2.7305 1.5977 6.1094 0 8.8398z"/><path d="M350 221.55c-2.3672 0-4.2891 1.918-4.2891 4.2852v66.238c0 2.418 1.9609 4.375 4.375 4.375 2.418 0 4.375-1.957 4.375-4.375v-66.238c.0039-1.168-.47266-2.2852-1.3164-3.0938-.83984-.80859-1.9766-1.2383-3.1445-1.1914zm0 91.26c-2.3672 0-4.2891 1.918-4.2891 4.2891v17.062c0 2.4141 1.9609 4.375 4.375 4.375 2.418 0 4.375-1.9609 4.375-4.375v-17.062c.0039-1.168-.47266-2.2891-1.3164-3.0977-.83984-.80859-1.9766-1.2383-3.1445-1.1914z"/></svg>