<svg xmlns="http://www.w3.org/2000/svg" xmlns:xlink="http://www.w3.org/1999/xlink" t="1705660797996" class="icon" version="1.1" p-id="5452" viewBox="176.76 130.44 848.7 811.89" style="color: rgb(0, 0, 0) !important;"><path d="M425.447619 464.457143m-170.666667 0a170.666667 170.666667 0 1 0 341.333334 0 170.666667 170.666667 0 1 0-341.333334 0Z" fill="#FFCD00" p-id="5453" style="color: rgb(0, 0, 0) !important;" data-spm-anchor-id="a313x.search_index.0.i2.69e93a81DgYx3f" class="selected"></path><path d="M383.512381 571.977143c-1.462857 0-2.925714-0.24381-4.388571-0.731429a123.904 123.904 0 0 1-79.238096-114.834285c0-67.779048 55.100952-122.88 123.12381-122.88 40.472381 0 78.262857 19.992381 101.424762 53.394285a12.190476 12.190476 0 0 1-3.169524 17.066667 12.190476 12.190476 0 0 1-17.066667-3.169524c-18.529524-26.819048-48.761905-42.666667-81.188571-42.666667a98.742857 98.742857 0 0 0-98.742857 98.499048c0 40.71619 25.6 77.775238 63.390476 92.16 6.339048 2.438095 9.508571 9.508571 7.070476 15.847619-1.706667 4.388571-6.339048 7.314286-11.215238 7.314286z" p-id="5454" style="color: rgb(0, 0, 0) !important;"></path><path d="M606.110476 894.780952H239.664762c-34.620952 0-62.902857-28.281905-62.902857-62.902857V193.340952c0-34.620952 28.281905-62.902857 62.902857-62.902857h366.445714c34.620952 0 62.902857 28.281905 62.902857 62.902857v266.971429c0 6.826667-5.36381 12.190476-12.190476 12.190476s-12.190476-5.36381-12.190476-12.190476V193.340952c0-21.211429-17.310476-38.521905-38.521905-38.521904H239.664762c-21.211429 0-38.521905 17.310476-38.521905 38.521904v638.537143c0 21.211429 17.310476 38.521905 38.521905 38.521905h366.445714c7.070476 0 14.140952-1.950476 20.236191-5.851429 5.607619-3.413333 13.165714-1.706667 16.822857 3.900953 3.657143 5.607619 1.706667 13.165714-3.900953 16.822857-9.99619 6.095238-21.455238 9.508571-33.158095 9.508571z" p-id="5455" style="color: rgb(0, 0, 0) !important;"></path><path d="M656.822857 283.550476H188.952381c-6.826667 0-12.190476-5.36381-12.190476-12.190476s5.36381-12.190476 12.190476-12.190476h467.870476c6.826667 0 12.190476 5.36381 12.190476 12.190476s-5.36381 12.190476-12.190476 12.190476zM413.257143 747.52h-224.304762c-6.826667 0-12.190476-5.36381-12.190476-12.190476s5.36381-12.190476 12.190476-12.190476h224.304762c6.826667 0 12.190476 5.36381 12.190476 12.190476s-5.607619 12.190476-12.190476 12.190476zM471.771429 217.965714h-98.011429c-6.826667 0-12.190476-5.36381-12.190476-12.190476s5.36381-12.190476 12.190476-12.190476h98.011429c6.826667 0 12.190476 5.36381 12.190476 12.190476s-5.36381 12.190476-12.190476 12.190476zM448.365714 817.005714h-50.712381c-6.826667 0-12.190476-5.36381-12.190476-12.190476s5.36381-12.190476 12.190476-12.190476h50.712381c6.826667 0 12.190476 5.36381 12.190476 12.190476s-5.607619 12.190476-12.190476 12.190476z" p-id="5456" style="color: rgb(0, 0, 0) !important;"></path><path d="M760.685714 843.337143a11.459048 11.459048 0 0 1-8.533333-3.657143l-14.384762-14.384762c-19.748571-3.169524-105.325714-16.335238-121.173333-20.723809-51.44381-13.897143-115.321905-34.377143-128.731429-51.931429-9.020952-11.702857-11.215238-24.868571-6.095238-36.327619 4.632381-10.24 17.066667-23.161905 50.224762-25.6 27.306667-1.950476 56.56381 1.950476 75.337143 5.607619l-151.893334-151.893333c-16.335238-16.335238-22.674286-36.327619-17.798095-55.100953 4.388571-16.091429 17.066667-28.769524 33.158095-33.158095 18.529524-4.87619 38.521905 1.706667 54.857143 18.041905l103.375238 103.375238c2.681905-8.289524 7.314286-15.11619 13.897143-20.48 9.264762-7.314286 21.211429-10.24 33.645715-9.020952 1.219048-11.215238 6.339048-21.942857 14.872381-29.744762 10.48381-9.508571 23.893333-13.409524 38.278095-11.215238 2.194286-9.752381 8.289524-18.773333 17.066666-24.380953 12.190476-7.558095 31.695238-9.508571 49.737143 8.533333l74.118096 74.118096c31.207619 31.207619 37.546667 74.118095 38.765714 88.746666l13.897143 13.897143c4.87619 4.87619 4.87619 12.434286 0 17.310476s-12.434286 4.87619-17.310477 0l-17.066666-17.066666a12.970667 12.970667 0 0 1-3.657143-8.289524c0-0.487619-1.706667-46.811429-31.939048-77.04381l-74.118095-74.118095c-6.826667-7.070476-13.897143-8.777143-19.504762-5.12-4.632381 2.925714-8.289524 9.752381-6.095238 16.579048a12.141714 12.141714 0 0 1-16.822857 14.872381c-11.459048-5.607619-21.699048-5.12-29.013333 1.462857-6.582857 6.095238-9.020952 15.847619-5.851429 23.893333a12.263619 12.263619 0 0 1-16.579048 15.60381c-10.48381-4.87619-20.967619-4.632381-27.550476 0.487619-6.339048 5.12-8.533333 14.628571-6.095238 27.062857a11.946667 11.946667 0 0 1-6.095238 13.165714c-4.632381 2.681905-10.727619 1.706667-14.384762-2.194285l-122.88-122.88c-10.24-10.24-21.455238-14.384762-31.207619-11.702858-7.558095 1.950476-13.653333 8.045714-15.847619 15.847619-2.681905 10.24 1.462857 21.455238 11.459048 31.451429l162.620952 162.620952c2.925714 2.925714 4.144762 6.826667 3.413333 10.727619l-2.438095 14.140953c-0.487619 3.413333-2.681905 6.339048-5.363809 8.045714-2.925714 1.950476-6.339048 2.438095-9.752381 1.462857-0.487619-0.24381-47.055238-12.434286-87.28381-9.264762-18.773333 1.462857-27.794286 6.826667-29.744762 11.215238-1.950476 4.144762 1.706667 9.508571 3.169524 11.459048 5.607619 7.314286 47.055238 24.380952 115.809524 43.154286 13.409524 3.657143 92.891429 16.091429 122.392381 20.723809 2.681905 0.487619 4.87619 1.706667 6.826666 3.413334l17.066667 17.066666c4.632381 4.87619 4.632381 12.434286 0 17.310476a11.702857 11.702857 0 0 1-8.777143 3.900953z" p-id="5457" style="color: rgb(0, 0, 0) !important;"></path><path d="M823.588571 942.32381a11.459048 11.459048 0 0 1-8.533333-3.657143l-75.580952-75.580953c-4.87619-4.87619-4.87619-12.434286 0-17.310476l189.44-189.44c4.87619-4.87619 12.434286-4.87619 17.310476 0l75.580952 75.580952c4.87619 4.87619 4.87619 12.434286 0 17.310477l-189.44 189.44c-2.438095 2.438095-5.607619 3.657143-8.777143 3.657143z m-58.270476-87.771429l58.270476 58.270476 172.129524-172.129524-58.270476-58.270476-172.129524 172.129524z" p-id="5458" style="color: rgb(0, 0, 0) !important;"></path><path d="M828.952381 861.379048a11.459048 11.459048 0 0 1-8.533333-3.657143c-4.87619-4.87619-4.87619-12.434286 0-17.310476l36.327619-36.327619c4.87619-4.87619 12.434286-4.87619 17.310476 0s4.87619 12.434286 0 17.310476l-36.327619 36.327619c-2.438095 2.438095-5.607619 3.657143-8.777143 3.657143z" p-id="5459" style="color: rgb(0, 0, 0) !important;"></path></svg>